<?xml version="1.0" encoding="UTF-8" standalone="no"?>
<svg
   xmlns:dc="http://purl.org/dc/elements/1.1/"
   xmlns:cc="http://creativecommons.org/ns#"
   xmlns:rdf="http://www.w3.org/1999/02/22-rdf-syntax-ns#"
   xmlns:svg="http://www.w3.org/2000/svg"
   xmlns="http://www.w3.org/2000/svg"
   xmlns:sodipodi="http://sodipodi.sourceforge.net/DTD/sodipodi-0.dtd"
   xmlns:inkscape="http://www.inkscape.org/namespaces/inkscape"
   width="793.700787402"
   height="1122.51968504"
   version="1.1"
   id="svg7403"
   sodipodi:docname="Laser Cut  Acrylic Light Covers v1.svg"
   inkscape:version="0.92.4 (5da689c313, 2019-01-14)">
  <metadata
     id="metadata7407">
    <rdf:RDF>
      <cc:Work
         rdf:about="">
        <dc:format>image/svg+xml</dc:format>
        <dc:type
           rdf:resource="http://purl.org/dc/dcmitype/StillImage" />
        <dc:title></dc:title>
      </cc:Work>
    </rdf:RDF>
  </metadata>
  <sodipodi:namedview
     pagecolor="#ffffff"
     bordercolor="#666666"
     borderopacity="1"
     objecttolerance="10"
     gridtolerance="10"
     guidetolerance="10"
     inkscape:pageopacity="0"
     inkscape:pageshadow="2"
     inkscape:window-width="3840"
     inkscape:window-height="1973"
     id="namedview7405"
     showgrid="false"
     inkscape:zoom="0.074331527"
     inkscape:cx="-9750.8394"
     inkscape:cy="1683.4665"
     inkscape:window-x="-18"
     inkscape:window-y="-18"
     inkscape:window-maximized="1"
     inkscape:current-layer="g7401" />
  <desc
     id="desc7371">C:\Users\preci\OneDrive\Desktop\Laser Cut  Acrylic Light Covers v1.dxf - scale = 25.400000, origin = (0.000000, 0.000000), method = file</desc>
  <defs
     id="defs7385">
    <marker
       id="DistanceX"
       orient="auto"
       refX="0.0"
       refY="0.0"
       style="overflow:visible">
      <path
         d="M 3,-3 L -3,3 M 0,-5 L  0,5"
         style="stroke:#000000; stroke-width:0.5"
         id="path7373" />
    </marker>
    <pattern
       height="8"
       id="Hatch"
       patternUnits="userSpaceOnUse"
       width="8"
       x="0"
       y="0">
      <path
         d="M8 4 l-4,4"
         linecap="square"
         stroke="#000000"
         stroke-width="0.25"
         id="path7376" />
      <path
         d="M6 2 l-4,4"
         linecap="square"
         stroke="#000000"
         stroke-width="0.25"
         id="path7378" />
      <path
         d="M4 0 l-4,4"
         linecap="square"
         stroke="#000000"
         stroke-width="0.25"
         id="path7380" />
    </pattern>
    <symbol
       id="*MODEL_SPACE" />
    <symbol
       id="*PAPER_SPACE" />
  </defs>
  <g
     inkscape:groupmode="layer"
     inkscape:label="0"
     id="g7401">
    <path
       d="M 3035.749196,-413.480315 A 1344.000000,1344.000000 -0.000000 1 0 347.749196,-413.480315 1344.000000,1344.000000 -0.000000 1 0 3035.749196,-413.480315 z"
       style="stroke:#ff0000;fill:none;stroke-opacity:1;stroke-width:14.22992126;stroke-miterlimit:4;stroke-dasharray:none"
       id="path7387" />
    <path
       d="M 5915.749196,-413.404820 A 1344.000000,1344.000000 -0.000000 1 0 3227.749196,-413.404820 1344.000000,1344.000000 -0.000000 1 0 5915.749196,-413.404820 z"
       style="stroke:#ff0000;fill:none;stroke-opacity:1;stroke-width:14.22992126;stroke-miterlimit:4;stroke-dasharray:none"
       id="path7389" />
    <path
       d="M 8795.749196,-353.916930 A 1344.000000,1344.000000 -0.000000 1 0 6107.749196,-353.916930 1344.000000,1344.000000 -0.000000 1 0 8795.749196,-353.916930 z"
       style="stroke:#ff0000;fill:none;stroke-opacity:1;stroke-width:14.22992126;stroke-miterlimit:4;stroke-dasharray:none"
       id="path7391" />
    <path
       d="M 2880.000000,-3293.480315 A 1344.000000,1344.000000 -0.000000 1 0 192.000000,-3293.480315 1344.000000,1344.000000 -0.000000 1 0 2880.000000,-3293.480315 z"
       style="stroke:#ff0000;fill:none;stroke-opacity:1;stroke-width:14.22992126;stroke-miterlimit:4;stroke-dasharray:none"
       id="path7393" />
    <path
       d="M 5915.749196,-3293.480315 A 1344.000000,1344.000000 -0.000000 1 0 3227.749196,-3293.480315 1344.000000,1344.000000 -0.000000 1 0 5915.749196,-3293.480315 z"
       style="stroke:#ff0000;fill:none;stroke-opacity:1;stroke-width:14.22992126;stroke-miterlimit:4;stroke-dasharray:none"
       id="path7395" />
    <path
       d="M 8795.749196,-3293.480315 A 1344.000000,1344.000000 -0.000000 1 0 6107.749196,-3293.480315 1344.000000,1344.000000 -0.000000 1 0 8795.749196,-3293.480315 z"
       style="stroke:#ff0000;fill:none;stroke-opacity:1;stroke-width:14.22992126;stroke-miterlimit:4;stroke-dasharray:none"
       id="path7397" />
    <path
       d="M 9024.000000,1122.519685 L 0.000000,1122.519685 L 0.000000,-4829.480315 L 9024.000000,-4829.480315 L 9024.000000,1122.519685 z"
       style="stroke:#ff0000;fill:none;stroke-opacity:1;stroke-width:14.22992126;stroke-miterlimit:4;stroke-dasharray:none"
       id="path7399" />
  </g>
</svg>
