<?xml version="1.0" encoding="UTF-8" standalone="no"?>
<svg
   xmlns:dc="http://purl.org/dc/elements/1.1/"
   xmlns:cc="http://creativecommons.org/ns#"
   xmlns:rdf="http://www.w3.org/1999/02/22-rdf-syntax-ns#"
   xmlns:svg="http://www.w3.org/2000/svg"
   xmlns="http://www.w3.org/2000/svg"
   xmlns:xlink="http://www.w3.org/1999/xlink"
   xmlns:sodipodi="http://sodipodi.sourceforge.net/DTD/sodipodi-0.dtd"
   xmlns:inkscape="http://www.inkscape.org/namespaces/inkscape"
   width="28in"
   height="17in"
   version="1.1"
   id="svg1789"
   sodipodi:docname="LaserCutBox v2p1.svg"
   inkscape:version="0.92.4 (5da689c313, 2019-01-14)">
  <metadata
     id="metadata1793">
    <rdf:RDF>
      <cc:Work
         rdf:about="">
        <dc:format>image/svg+xml</dc:format>
        <dc:type
           rdf:resource="http://purl.org/dc/dcmitype/StillImage" />
        <dc:title />
      </cc:Work>
    </rdf:RDF>
  </metadata>
  <sodipodi:namedview
     pagecolor="#ffffff"
     bordercolor="#666666"
     borderopacity="1"
     objecttolerance="10"
     gridtolerance="10"
     guidetolerance="10"
     inkscape:pageopacity="0"
     inkscape:pageshadow="2"
     inkscape:window-width="3840"
     inkscape:window-height="1973"
     id="namedview1791"
     showgrid="false"
     inkscape:document-units="in"
     units="in"
     inkscape:zoom="0.76154919"
     inkscape:cx="1011.1929"
     inkscape:cy="728.93555"
     inkscape:window-x="-18"
     inkscape:window-y="-18"
     inkscape:window-maximized="1"
     inkscape:current-layer="g1741" />
  <desc
     id="desc1594">C:\Users\preci\OneDrive\Desktop\LaserCutBox v1.dxf - scale = 25.400000, origin = (0.000000, 0.000000), method = file</desc>
  <defs
     id="defs1733">
    <marker
       id="DistanceX"
       orient="auto"
       refX="0"
       refY="0"
       style="overflow:visible">
      <path
         d="M 3,-3 -3,3 M 0,-5 V 5"
         style="stroke:#000000;stroke-width:0.5"
         id="path1596"
         inkscape:connector-curvature="0" />
    </marker>
    <pattern
       height="8"
       id="Hatch"
       patternUnits="userSpaceOnUse"
       width="8"
       x="0"
       y="0">
      <path
         d="M8 4 l-4,4"
         linecap="square"
         stroke="#000000"
         stroke-width="0.25"
         id="path1599" />
      <path
         d="M6 2 l-4,4"
         linecap="square"
         stroke="#000000"
         stroke-width="0.25"
         id="path1601" />
      <path
         d="M4 0 l-4,4"
         linecap="square"
         stroke="#000000"
         stroke-width="0.25"
         id="path1603" />
    </pattern>
    <symbol
       id="*Model_Space" />
    <symbol
       id="*Paper_Space" />
    <symbol
       id="*Paper_Space0" />
    <symbol
       id="Component1">
      <path
         d="m 0.25,1392.9997 a 0.25,0.25 0 1 0 -0.5,0 0.25,0.25 0 1 0 0.5,0 z"
         style="fill:none;stroke:#000000"
         id="path1609"
         inkscape:connector-curvature="0" />
      <path
         d="m 534.24,1392.9997 v 0"
         style="fill:none;stroke:#000000"
         id="path1611"
         inkscape:connector-curvature="0" />
      <path
         d="m -656.16,1392.9997 v 0"
         style="fill:none;stroke:#000000"
         id="path1613"
         inkscape:connector-curvature="0" />
      <path
         d="M -480,1392.9997 H 384"
         style="fill:none;stroke:#000000"
         id="path1615"
         inkscape:connector-curvature="0" />
      <path
         d="M -656.16,1392.9997 H 656.16"
         style="fill:none;stroke:#000000"
         id="path1617"
         inkscape:connector-curvature="0" />
      <path
         d="m -656.16,1392.9997 v 0"
         style="fill:none;stroke:#000000"
         id="path1619"
         inkscape:connector-curvature="0" />
      <path
         d="M -656.16,1392.9997 H 534.24"
         style="fill:none;stroke:#000000"
         id="path1621"
         inkscape:connector-curvature="0" />
      <path
         d="M 534.24,1392.9997 H -656.16"
         style="fill:none;stroke:#000000"
         id="path1623"
         inkscape:connector-curvature="0" />
      <path
         d="M 384,1392.9997 H -480"
         style="fill:none;stroke:#000000"
         id="path1625"
         inkscape:connector-curvature="0" />
      <path
         d="m 384,1392.9997 v 0"
         style="fill:none;stroke:#000000"
         id="path1627"
         inkscape:connector-curvature="0" />
      <path
         d="m 656.16,1392.9997 v 0"
         style="fill:none;stroke:#000000"
         id="path1629"
         inkscape:connector-curvature="0" />
      <path
         d="m -480,1392.9997 v 0"
         style="fill:none;stroke:#000000"
         id="path1631"
         inkscape:connector-curvature="0" />
      <path
         d="M 656.16,1392.9997 H -656.16"
         style="fill:none;stroke:#000000"
         id="path1633"
         inkscape:connector-curvature="0" />
      <path
         d="m 59.533108,1100.2373 a 0.25,0.25 0 1 0 -0.5,0 0.25,0.25 0 1 0 0.5,0 z"
         style="fill:none;stroke:#000000"
         id="path1635"
         inkscape:connector-curvature="0" />
      <path
         d="m -1860.7169,140.23732 h 854.4"
         style="fill:none;stroke:#000000"
         id="path1637"
         inkscape:connector-curvature="0" />
      <path
         d="m -1006.3169,140.23732 v 566.4"
         style="fill:none;stroke:#000000"
         id="path1639"
         inkscape:connector-curvature="0" />
      <path
         d="m -1006.3169,706.63732 h -854.4"
         style="fill:none;stroke:#000000"
         id="path1641"
         inkscape:connector-curvature="0" />
      <path
         d="m -1860.7169,706.63732 v -566.4"
         style="fill:none;stroke:#000000"
         id="path1643"
         inkscape:connector-curvature="0" />
      <path
         d="m 0.25,1122.5197 a 0.25,0.25 0 1 0 -0.5,0 0.25,0.25 0 1 0 0.5,0 z"
         style="fill:none;stroke:#000000"
         id="path1645"
         inkscape:connector-curvature="0" />
      <path
         d="m -1006.3169,706.63732 v -566.4"
         style="fill:none;stroke:#000000"
         id="path1647"
         inkscape:connector-curvature="0" />
      <path
         d="m -1248,594.51968 h -336"
         style="fill:none;stroke:#000000"
         id="path1649"
         inkscape:connector-curvature="0" />
      <path
         d="m -1248,546.51968 v 48"
         style="fill:none;stroke:#000000"
         id="path1651"
         inkscape:connector-curvature="0" />
      <path
         d="m -1006.3169,140.23732 h -854.4"
         style="fill:none;stroke:#000000"
         id="path1653"
         inkscape:connector-curvature="0" />
      <path
         d="m -1860.7169,706.63732 h 854.4"
         style="fill:none;stroke:#000000"
         id="path1655"
         inkscape:connector-curvature="0" />
      <path
         d="m -1584,546.51968 h 336"
         style="fill:none;stroke:#000000"
         id="path1657"
         inkscape:connector-curvature="0" />
      <path
         d="m -1584,594.51968 v -48"
         style="fill:none;stroke:#000000"
         id="path1659"
         inkscape:connector-curvature="0" />
      <path
         d="m -1860.7169,140.23732 v 566.4"
         style="fill:none;stroke:#000000"
         id="path1661"
         inkscape:connector-curvature="0" />
      <use
         transform="translate(-59.283108,22.282369)"
         xlink:href="#Component2"
         id="use1663"
         x="0"
         y="0"
         width="100%"
         height="100%" />
      <use
         transform="translate(-779.82542,206.09998)"
         xlink:href="#Component3"
         id="use1665"
         x="0"
         y="0"
         width="100%"
         height="100%" />
    </symbol>
    <symbol
       id="Component2">
      <path
         d="m 656.41,1101.9493 a 0.25,0.25 0 1 0 -0.5,0 0.25,0.25 0 1 0 0.5,0 z"
         style="fill:none;stroke:#000000"
         id="path1668"
         inkscape:connector-curvature="0" />
      <path
         d="m 656.16,852.03968 v 0"
         style="fill:none;stroke:#000000"
         id="path1670"
         inkscape:connector-curvature="0" />
      <path
         d="m 656.16,1392.9997 v 0"
         style="fill:none;stroke:#000000"
         id="path1672"
         inkscape:connector-curvature="0" />
      <path
         d="M 656.16,852.03968 V 1392.9997"
         style="fill:none;stroke:#000000"
         id="path1674"
         inkscape:connector-curvature="0" />
      <path
         d="M 656.16,1392.9997 V 852.03968"
         style="fill:none;stroke:#000000"
         id="path1676"
         inkscape:connector-curvature="0" />
      <path
         d="M 656.16,1392.9997 V 852.03968"
         style="fill:none;stroke:#000000"
         id="path1678"
         inkscape:connector-curvature="0" />
      <path
         d="M 656.16,852.03968 V 1392.9997"
         style="fill:none;stroke:#000000"
         id="path1680"
         inkscape:connector-curvature="0" />
      <path
         d="m 656.16,1392.9997 v 0"
         style="fill:none;stroke:#000000"
         id="path1682"
         inkscape:connector-curvature="0" />
      <path
         d="M 656.16,852.03968 V -69.560315"
         style="fill:none;stroke:#000000"
         id="path1684"
         inkscape:connector-curvature="0" />
      <path
         d="m 656.16,-610.52031 v 0"
         style="fill:none;stroke:#000000"
         id="path1686"
         inkscape:connector-curvature="0" />
      <path
         d="m 656.16,-610.52031 v 0"
         style="fill:none;stroke:#000000"
         id="path1688"
         inkscape:connector-curvature="0" />
      <path
         d="M 656.16,-69.560315 V -610.52031"
         style="fill:none;stroke:#000000"
         id="path1690"
         inkscape:connector-curvature="0" />
      <path
         d="M 656.16,852.03968 V -69.560315"
         style="fill:none;stroke:#000000"
         id="path1692"
         inkscape:connector-curvature="0" />
      <path
         d="m 656.16,-69.560315 v 0"
         style="fill:none;stroke:#000000"
         id="path1694"
         inkscape:connector-curvature="0" />
      <path
         d="M 656.16,-69.560315 V -610.52031"
         style="fill:none;stroke:#000000"
         id="path1696"
         inkscape:connector-curvature="0" />
    </symbol>
    <symbol
       id="Component3">
      <path
         d="m 0.25,1122.5197 a 0.25,0.25 0 1 0 -0.5,0 0.25,0.25 0 1 0 0.5,0 z"
         style="fill:none;stroke:#000000"
         id="path1699"
         inkscape:connector-curvature="0" />
      <path
         d="m 0,756.80394 v -921.6"
         style="fill:none;stroke:#000000"
         id="path1701"
         inkscape:connector-curvature="0" />
      <path
         d="m 0,-705.75607 v 540.96001"
         style="fill:none;stroke:#000000"
         id="path1703"
         inkscape:connector-curvature="0" />
      <path
         d="M 0,-164.79606 V -705.75607"
         style="fill:none;stroke:#000000"
         id="path1705"
         inkscape:connector-curvature="0" />
      <path
         d="m 0,1297.7639 v 0"
         style="fill:none;stroke:#000000"
         id="path1707"
         inkscape:connector-curvature="0" />
      <path
         d="m 0,-705.75607 v 0"
         style="fill:none;stroke:#000000"
         id="path1709"
         inkscape:connector-curvature="0" />
      <path
         d="M 0,756.80394 V 1297.7639"
         style="fill:none;stroke:#000000"
         id="path1711"
         inkscape:connector-curvature="0" />
      <path
         d="m 0,756.80394 v -921.6"
         style="fill:none;stroke:#000000"
         id="path1713"
         inkscape:connector-curvature="0" />
      <path
         d="M 0,1297.7639 V 756.80394"
         style="fill:none;stroke:#000000"
         id="path1715"
         inkscape:connector-curvature="0" />
    </symbol>
    <symbol
       id="Component5">
      <path
         d="m 0.25,1122.5197 a 0.25,0.25 0 1 0 -0.5,0 0.25,0.25 0 1 0 0.5,0 z"
         style="fill:none;stroke:#000000"
         id="path1718"
         inkscape:connector-curvature="0" />
      <path
         d="m -1357.8555,354.24117 a 177.6,177.6 0 1 0 -355.2,0 177.6,177.6 0 1 0 355.2,0 z"
         style="fill:none;stroke:#000000"
         id="path1720"
         inkscape:connector-curvature="0" />
      <path
         d="m -1358.4,738.51968 a 177.6,177.6 0 1 0 -355.2,0 177.6,177.6 0 1 0 355.2,0 z"
         style="fill:none;stroke:#000000"
         id="path1722"
         inkscape:connector-curvature="0" />
      <path
         d="M -879.29554,71.191197 V 1011.9912"
         style="fill:none;stroke:#000000"
         id="path1724"
         inkscape:connector-curvature="0" />
      <path
         d="M -879.29554,1011.9912 H -2191.6155"
         style="fill:none;stroke:#000000"
         id="path1726"
         inkscape:connector-curvature="0" />
      <path
         d="M -2191.6155,71.191197 H -879.29554"
         style="fill:none;stroke:#000000"
         id="path1728"
         inkscape:connector-curvature="0" />
      <path
         d="M -2191.6155,1011.9912 V 71.191197"
         style="fill:none;stroke:#000000"
         id="path1730"
         inkscape:connector-curvature="0" />
    </symbol>
  </defs>
  <g
     inkscape:groupmode="layer"
     inkscape:label="0"
     id="g1741"
     transform="translate(0,509.4803)">
    <use
       transform="translate(3399.7168,-593.07311)"
       xlink:href="#Component5"
       id="use1739"
       x="0"
       y="0"
       width="100%"
       height="100%" />
  </g>
  <g
     inkscape:groupmode="layer"
     inkscape:label="LaserCutBox v1_Sketch2"
     id="g1763"
     transform="translate(0,509.4803)">
    <path
       d="m 695.5515,377.92009 a 0.25,0.25 0 1 0 -0.5,0 0.25,0.25 0 1 0 0.5,0 z"
       style="fill:none;stroke:#000000"
       id="path1743"
       inkscape:connector-curvature="0" />
    <path
       d="m 695.5515,377.92009 a 0.25,0.25 0 1 0 -0.5,0 0.25,0.25 0 1 0 0.5,0 z"
       style="fill:none;stroke:#000000"
       id="path1745"
       inkscape:connector-curvature="0" />
    <path
       d="M 1351.4615,107.44007 H 39.141506"
       style="fill:none;stroke:#000000"
       id="path1749"
       inkscape:connector-curvature="0" />
    <path
       d="M 39.141506,107.44007 V 648.40009"
       style="fill:none;stroke:#000000"
       id="path1751"
       inkscape:connector-curvature="0" />
    <path
       d="m 1112.9015,377.92009 a 177.6,177.6 0 1 0 -355.2,0 177.6,177.6 0 1 0 355.2,0 z"
       style="fill:none;stroke:#000000"
       id="path1753"
       inkscape:connector-curvature="0" />
    <path
       d="M 1351.4615,648.40009 V 107.44007"
       style="fill:none;stroke:#000000"
       id="path1755"
       inkscape:connector-curvature="0" />
    <path
       d="m 632.9015,377.92009 a 177.6,177.6 0 1 0 -355.2,0 177.6,177.6 0 1 0 355.2,0 z"
       style="fill:none;stroke:#000000"
       id="path1757"
       inkscape:connector-curvature="0" />
    <path
       d="M 39.141506,648.40009 H 1351.4615"
       style="fill:none;stroke:#000000"
       id="path1761"
       inkscape:connector-curvature="0" />
    <path
       d="m 2056.5847,756.16124 a 0.25,0.25 0 1 0 -0.5,0 0.25,0.25 0 1 0 0.5,0 z"
       style="fill:none;stroke:#000000"
       id="path1743-6"
       inkscape:connector-curvature="0" />
    <path
       d="m 2056.5847,756.16124 a 0.25,0.25 0 1 0 -0.5,0 0.25,0.25 0 1 0 0.5,0 z"
       style="fill:none;stroke:#000000"
       id="path1745-4"
       inkscape:connector-curvature="0" />
    <path
       d="m 2712.4947,485.68122 h -1312.32"
       style="fill:none;stroke:#000000"
       id="path1749-6"
       inkscape:connector-curvature="0" />
    <path
       d="M 1400.1747,485.68122 V 1026.6412"
       style="fill:none;stroke:#000000"
       id="path1751-2"
       inkscape:connector-curvature="0" />
    <path
       d="m 2473.9347,756.16124 a 177.6,177.6 0 1 0 -355.2,0 177.6,177.6 0 1 0 355.2,0 z"
       style="fill:none;stroke:#000000"
       id="path1753-1"
       inkscape:connector-curvature="0" />
    <path
       d="M 2712.4947,1026.6412 V 485.68122"
       style="fill:none;stroke:#000000"
       id="path1755-1"
       inkscape:connector-curvature="0" />
    <path
       d="m 1993.9347,756.16124 a 177.6,177.6 0 1 0 -355.2,0 177.6,177.6 0 1 0 355.2,0 z"
       style="fill:none;stroke:#000000"
       id="path1757-2"
       inkscape:connector-curvature="0" />
    <path
       d="m 1400.1747,1026.6412 h 1312.32"
       style="fill:none;stroke:#000000"
       id="path1761-7"
       inkscape:connector-curvature="0" />
  </g>
  <g
     inkscape:groupmode="layer"
     inkscape:label="LaserCutBox v1_Sketch3"
     id="g1775"
     transform="translate(0,509.4803)" />
  <g
     inkscape:groupmode="layer"
     inkscape:label="Component1_Sketch1"
     id="g1777"
     transform="translate(0,509.4803)" />
  <g
     inkscape:groupmode="layer"
     inkscape:label="Component1_Sketch2"
     id="g1779"
     transform="translate(0,509.4803)" />
  <g
     inkscape:groupmode="layer"
     inkscape:label="Component1_Sketch3"
     id="g1781"
     transform="translate(0,509.4803)" />
  <g
     inkscape:groupmode="layer"
     inkscape:label="Component2_Sketch1"
     id="g1783"
     transform="translate(0,509.4803)" />
  <g
     inkscape:groupmode="layer"
     inkscape:label="Component3_Sketch2"
     id="g1785"
     transform="translate(0,509.4803)" />
  <g
     inkscape:groupmode="layer"
     inkscape:label="Component5_Sketch1"
     id="g1787"
     transform="translate(0,509.4803)" />
</svg>
