  0
SECTION
  2
HEADER
  9
$ACADVER
  1
AC1014
  9
$HANDSEED
  5
FFFF
  9
$MEASUREMENT
 70
     1
  0
ENDSEC
  0
SECTION
  2
TABLES
  0
TABLE
  2
VPORT
  5
8
330
0
100
AcDbSymbolTable
 70
     4
  0
VPORT
  5
2E
330
8
100
AcDbSymbolTableRecord
100
AcDbViewportTableRecord
  2
*ACTIVE
 70
     0
 10
0.0
 20
0.0
 11
1.0
 21
1.0
 12
210.0
 22
148.5
 13
0.0
 23
0.0
 14
10.0
 24
10.0
 15
10.0
 25
10.0
 16
0.0
 26
0.0
 36
1.0
 17
0.0
 27
0.0
 37
0.0
 40
341.0
 41
1.24
 42
50.0
 43
0.0
 44
0.0
 50
0.0
 51
0.0
 71
     0
 72
   100
 73
     1
 74
     3
 75
     0
 76
     0
 77
     0
 78
     0
  0
ENDTAB
  0
TABLE
  2
LTYPE
  5
5
330
0
100
AcDbSymbolTable
 70
     1
  0
LTYPE
  5
14
330
5
100
AcDbSymbolTableRecord
100
AcDbLinetypeTableRecord
  2
BYBLOCK
 70
     0
  3

 72
    65
 73
     0
 40
0.0
  0
LTYPE
  5
15
330
5
100
AcDbSymbolTableRecord
100
AcDbLinetypeTableRecord
  2
BYLAYER
 70
     0
  3

 72
    65
 73
     0
 40
0.0
  0
LTYPE
  5
16
330
5
100
AcDbSymbolTableRecord
100
AcDbLinetypeTableRecord
  2
CONTINUOUS
 70
     0
  3
Solid line
 72
    65
 73
     0
 40
0.0
  0
ENDTAB
  0
TABLE
  2
LAYER
  5
2
100
AcDbSymbolTable
 70
1
  0
LAYER
  5
50
100
AcDbSymbolTableRecord
100
AcDbLayerTableRecord
  2
0
 70
0
  6
CONTINUOUS
  0
ENDTAB
  0
TABLE
  2
STYLE
  5
3
330
0
100
AcDbSymbolTable
 70
     1
  0
STYLE
  5
11
330
3
100
AcDbSymbolTableRecord
100
AcDbTextStyleTableRecord
  2
STANDARD
 70
     0
 40
0.0
 41
1.0
 50
0.0
 71
     0
 42
2.5
  3
txt
  4

  0
ENDTAB
  0
TABLE
  2
VIEW
  5
6
330
0
100
AcDbSymbolTable
 70
     0
  0
ENDTAB
  0
TABLE
  2
UCS
  5
7
330
0
100
AcDbSymbolTable
 70
     0
  0
ENDTAB
  0
TABLE
  2
APPID
  5
9
330
0
100
AcDbSymbolTable
 70
     2
  0
APPID
  5
12
330
9
100
AcDbSymbolTableRecord
100
AcDbRegAppTableRecord
  2
ACAD
 70
     0
  0
ENDTAB
  0
TABLE
  2
DIMSTYLE
  5
A
330
0
100
AcDbSymbolTable
 70
     1
  0
DIMSTYLE
105
27
330
A
100
AcDbSymbolTableRecord
100
AcDbDimStyleTableRecord
  2
ISO-25
 70
     0
  3

  4

  5

  6

  7

 40
1.0
 41
2.5
 42
0.625
 43
3.75
 44
1.25
 45
0.0
 46
0.0
 47
0.0
 48
0.0
140
2.5
141
2.5
142
0.0
143
0.03937007874016
144
1.0
145
0.0
146
1.0
147
0.625
 71
     0
 72
     0
 73
     0
 74
     0
 75
     0
 76
     0
 77
     1
 78
     8
170
     0
171
     3
172
     1
173
     0
174
     0
175
     0
176
     0
177
     0
178
     0
270
     2
271
     2
272
     2
273
     2
274
     3
340
11
275
     0
280
     0
281
     0
282
     0
283
     0
284
     8
285
     0
286
     0
287
     3
288
     0
  0
ENDTAB
  0
TABLE
  2
BLOCK_RECORD
  5
1
330
0
100
AcDbSymbolTable
 70
     1
  0
BLOCK_RECORD
  5
1F
330
1
100
AcDbSymbolTableRecord
100
AcDbBlockTableRecord
  2
*MODEL_SPACE
  0
BLOCK_RECORD
  5
1B
330
1
100
AcDbSymbolTableRecord
100
AcDbBlockTableRecord
  2
*PAPER_SPACE
  0
ENDTAB
  0
ENDSEC
  0
SECTION
  2
BLOCKS
  0
BLOCK
  5
20
330
1F
100
AcDbEntity
  8
0
100
AcDbBlockBegin
  2
*MODEL_SPACE
 70
     0
 10
0.0
 20
0.0
 30
0.0
  3
*MODEL_SPACE
  1

  0
ENDBLK
  5
21
330
1F
100
AcDbEntity
  8
0
100
AcDbBlockEnd
  0
BLOCK
  5
1C
330
1B
100
AcDbEntity
 67
     1
  8
0
100
AcDbBlockBegin
  2
*PAPER_SPACE
  1

  0
ENDBLK
  5
1D
330
1B
100
AcDbEntity
 67
     1
  8
0
100
AcDbBlockEnd
  0
ENDSEC
  0
SECTION
  2
ENTITIES
  0
SPLINE
  5
100
100
AcDbEntity
  8
0
 62
1
100
AcDbSpline
 70
8
 71
3
 72
8
 73
4
 74
0
 40
0
 40
0
 40
0
 40
0
 40
1
 40
1
 40
1
 40
1
 10
2276.811897
 20
1152.000000
 30
0.0
 10
2276.811897
 20
1512.123715
 30
0.0
 10
2084.688182
 20
1844.891750
 30
0.0
 10
1772.811897
 20
2024.953607
 30
0.0
  0
SPLINE
  5
101
100
AcDbEntity
  8
0
 62
1
100
AcDbSpline
 70
8
 71
3
 72
8
 73
4
 74
0
 40
0
 40
0
 40
0
 40
0
 40
1
 40
1
 40
1
 40
1
 10
1772.811897
 20
2024.953607
 30
0.0
 10
1460.935612
 20
2205.015464
 30
0.0
 10
1076.688182
 20
2205.015464
 30
0.0
 10
764.811897
 20
2024.953607
 30
0.0
  0
SPLINE
  5
102
100
AcDbEntity
  8
0
 62
1
100
AcDbSpline
 70
8
 71
3
 72
8
 73
4
 74
0
 40
0
 40
0
 40
0
 40
0
 40
1
 40
1
 40
1
 40
1
 10
764.811897
 20
2024.953607
 30
0.0
 10
452.935612
 20
1844.891750
 30
0.0
 10
260.811897
 20
1512.123715
 30
0.0
 10
260.811897
 20
1152.000000
 30
0.0
  0
SPLINE
  5
103
100
AcDbEntity
  8
0
 62
1
100
AcDbSpline
 70
8
 71
3
 72
8
 73
4
 74
0
 40
0
 40
0
 40
0
 40
0
 40
1
 40
1
 40
1
 40
1
 10
260.811897
 20
1152.000000
 30
0.0
 10
260.811897
 20
791.876285
 30
0.0
 10
452.935612
 20
459.108250
 30
0.0
 10
764.811897
 20
279.046393
 30
0.0
  0
SPLINE
  5
104
100
AcDbEntity
  8
0
 62
1
100
AcDbSpline
 70
8
 71
3
 72
8
 73
4
 74
0
 40
0
 40
0
 40
0
 40
0
 40
1
 40
1
 40
1
 40
1
 10
764.811897
 20
279.046393
 30
0.0
 10
1076.688182
 20
98.984536
 30
0.0
 10
1460.935612
 20
98.984536
 30
0.0
 10
1772.811897
 20
279.046393
 30
0.0
  0
SPLINE
  5
105
100
AcDbEntity
  8
0
 62
1
100
AcDbSpline
 70
8
 71
3
 72
8
 73
4
 74
0
 40
0
 40
0
 40
0
 40
0
 40
1
 40
1
 40
1
 40
1
 10
1772.811897
 20
279.046393
 30
0.0
 10
2084.688182
 20
459.108250
 30
0.0
 10
2276.811897
 20
791.876285
 30
0.0
 10
2276.811897
 20
1152.000000
 30
0.0
  0
SPLINE
  5
106
100
AcDbEntity
  8
0
 62
1
100
AcDbSpline
 70
8
 71
3
 72
8
 73
4
 74
0
 40
0
 40
0
 40
0
 40
0
 40
1
 40
1
 40
1
 40
1
 10
4436.811897
 20
1151.943379
 30
0.0
 10
4436.811905
 20
1512.067098
 30
0.0
 10
4244.688192
 20
1844.835141
 30
0.0
 10
3932.811903
 20
2024.897003
 30
0.0
  0
SPLINE
  5
107
100
AcDbEntity
  8
0
 62
1
100
AcDbSpline
 70
8
 71
3
 72
8
 73
4
 74
0
 40
0
 40
0
 40
0
 40
0
 40
1
 40
1
 40
1
 40
1
 10
3932.811903
 20
2024.897003
 30
0.0
 10
3620.935615
 20
2204.958866
 30
0.0
 10
3236.688179
 20
2204.958866
 30
0.0
 10
2924.811891
 20
2024.897003
 30
0.0
  0
SPLINE
  5
108
100
AcDbEntity
  8
0
 62
1
100
AcDbSpline
 70
8
 71
3
 72
8
 73
4
 74
0
 40
0
 40
0
 40
0
 40
0
 40
1
 40
1
 40
1
 40
1
 10
2924.811891
 20
2024.897003
 30
0.0
 10
2612.935602
 20
1844.835141
 30
0.0
 10
2420.811889
 20
1512.067098
 30
0.0
 10
2420.811897
 20
1151.943379
 30
0.0
  0
SPLINE
  5
109
100
AcDbEntity
  8
0
 62
1
100
AcDbSpline
 70
8
 71
3
 72
8
 73
4
 74
0
 40
0
 40
0
 40
0
 40
0
 40
1
 40
1
 40
1
 40
1
 10
2420.811897
 20
1151.943379
 30
0.0
 10
2420.811897
 20
791.819664
 30
0.0
 10
2612.935612
 20
459.051629
 30
0.0
 10
2924.811897
 20
278.989772
 30
0.0
  0
SPLINE
  5
10a
100
AcDbEntity
  8
0
 62
1
100
AcDbSpline
 70
8
 71
3
 72
8
 73
4
 74
0
 40
0
 40
0
 40
0
 40
0
 40
1
 40
1
 40
1
 40
1
 10
2924.811897
 20
278.989772
 30
0.0
 10
3236.688182
 20
98.927914
 30
0.0
 10
3620.935612
 20
98.927914
 30
0.0
 10
3932.811897
 20
278.989772
 30
0.0
  0
SPLINE
  5
10b
100
AcDbEntity
  8
0
 62
1
100
AcDbSpline
 70
8
 71
3
 72
8
 73
4
 74
0
 40
0
 40
0
 40
0
 40
0
 40
1
 40
1
 40
1
 40
1
 10
3932.811897
 20
278.989772
 30
0.0
 10
4244.688182
 20
459.051629
 30
0.0
 10
4436.811897
 20
791.819664
 30
0.0
 10
4436.811897
 20
1151.943379
 30
0.0
  0
LWPOLYLINE
  5
10c
100
AcDbEntity
  8
0
 62
1
100
AcDbPolyline
 90
1
 70
1
 10
2276.811897
 20
1152.000000
 30
0.0
  0
SPLINE
  5
10d
100
AcDbEntity
  8
0
 62
1
100
AcDbSpline
 70
8
 71
3
 72
8
 73
4
 74
0
 40
0
 40
0
 40
0
 40
0
 40
1
 40
1
 40
1
 40
1
 10
6596.811897
 20
1107.327461
 30
0.0
 10
6596.811897
 20
1467.451176
 30
0.0
 10
6404.688182
 20
1800.219211
 30
0.0
 10
6092.811897
 20
1980.281068
 30
0.0
  0
SPLINE
  5
10e
100
AcDbEntity
  8
0
 62
1
100
AcDbSpline
 70
8
 71
3
 72
8
 73
4
 74
0
 40
0
 40
0
 40
0
 40
0
 40
1
 40
1
 40
1
 40
1
 10
6092.811897
 20
1980.281068
 30
0.0
 10
5780.935612
 20
2160.342926
 30
0.0
 10
5396.688182
 20
2160.342926
 30
0.0
 10
5084.811897
 20
1980.281068
 30
0.0
  0
SPLINE
  5
10f
100
AcDbEntity
  8
0
 62
1
100
AcDbSpline
 70
8
 71
3
 72
8
 73
4
 74
0
 40
0
 40
0
 40
0
 40
0
 40
1
 40
1
 40
1
 40
1
 10
5084.811897
 20
1980.281068
 30
0.0
 10
4772.935612
 20
1800.219211
 30
0.0
 10
4580.811897
 20
1467.451176
 30
0.0
 10
4580.811897
 20
1107.327461
 30
0.0
  0
SPLINE
  5
110
100
AcDbEntity
  8
0
 62
1
100
AcDbSpline
 70
8
 71
3
 72
8
 73
4
 74
0
 40
0
 40
0
 40
0
 40
0
 40
1
 40
1
 40
1
 40
1
 10
4580.811897
 20
1107.327461
 30
0.0
 10
4580.811897
 20
747.203747
 30
0.0
 10
4772.935612
 20
414.435712
 30
0.0
 10
5084.811897
 20
234.373854
 30
0.0
  0
SPLINE
  5
111
100
AcDbEntity
  8
0
 62
1
100
AcDbSpline
 70
8
 71
3
 72
8
 73
4
 74
0
 40
0
 40
0
 40
0
 40
0
 40
1
 40
1
 40
1
 40
1
 10
5084.811897
 20
234.373854
 30
0.0
 10
5396.688182
 20
54.311997
 30
0.0
 10
5780.935612
 20
54.311997
 30
0.0
 10
6092.811897
 20
234.373854
 30
0.0
  0
SPLINE
  5
112
100
AcDbEntity
  8
0
 62
1
100
AcDbSpline
 70
8
 71
3
 72
8
 73
4
 74
0
 40
0
 40
0
 40
0
 40
0
 40
1
 40
1
 40
1
 40
1
 10
6092.811897
 20
234.373854
 30
0.0
 10
6404.688182
 20
414.435712
 30
0.0
 10
6596.811897
 20
747.203747
 30
0.0
 10
6596.811897
 20
1107.327461
 30
0.0
  0
LWPOLYLINE
  5
113
100
AcDbEntity
  8
0
 62
1
100
AcDbPolyline
 90
1
 70
1
 10
4436.811897
 20
1151.943379
 30
0.0
  0
SPLINE
  5
114
100
AcDbEntity
  8
0
 62
1
100
AcDbSpline
 70
8
 71
3
 72
8
 73
4
 74
0
 40
0
 40
0
 40
0
 40
0
 40
1
 40
1
 40
1
 40
1
 10
2160.000000
 20
3312.000000
 30
0.0
 10
2160.000000
 20
3672.123715
 30
0.0
 10
1967.876285
 20
4004.891750
 30
0.0
 10
1656.000000
 20
4184.953607
 30
0.0
  0
SPLINE
  5
115
100
AcDbEntity
  8
0
 62
1
100
AcDbSpline
 70
8
 71
3
 72
8
 73
4
 74
0
 40
0
 40
0
 40
0
 40
0
 40
1
 40
1
 40
1
 40
1
 10
1656.000000
 20
4184.953607
 30
0.0
 10
1344.123715
 20
4365.015464
 30
0.0
 10
959.876285
 20
4365.015464
 30
0.0
 10
648.000000
 20
4184.953607
 30
0.0
  0
SPLINE
  5
116
100
AcDbEntity
  8
0
 62
1
100
AcDbSpline
 70
8
 71
3
 72
8
 73
4
 74
0
 40
0
 40
0
 40
0
 40
0
 40
1
 40
1
 40
1
 40
1
 10
648.000000
 20
4184.953607
 30
0.0
 10
336.123715
 20
4004.891750
 30
0.0
 10
144.000000
 20
3672.123715
 30
0.0
 10
144.000000
 20
3312.000000
 30
0.0
  0
SPLINE
  5
117
100
AcDbEntity
  8
0
 62
1
100
AcDbSpline
 70
8
 71
3
 72
8
 73
4
 74
0
 40
0
 40
0
 40
0
 40
0
 40
1
 40
1
 40
1
 40
1
 10
144.000000
 20
3312.000000
 30
0.0
 10
144.000000
 20
2951.876285
 30
0.0
 10
336.123715
 20
2619.108250
 30
0.0
 10
648.000000
 20
2439.046393
 30
0.0
  0
SPLINE
  5
118
100
AcDbEntity
  8
0
 62
1
100
AcDbSpline
 70
8
 71
3
 72
8
 73
4
 74
0
 40
0
 40
0
 40
0
 40
0
 40
1
 40
1
 40
1
 40
1
 10
648.000000
 20
2439.046393
 30
0.0
 10
959.876285
 20
2258.984536
 30
0.0
 10
1344.123715
 20
2258.984536
 30
0.0
 10
1656.000000
 20
2439.046393
 30
0.0
  0
SPLINE
  5
119
100
AcDbEntity
  8
0
 62
1
100
AcDbSpline
 70
8
 71
3
 72
8
 73
4
 74
0
 40
0
 40
0
 40
0
 40
0
 40
1
 40
1
 40
1
 40
1
 10
1656.000000
 20
2439.046393
 30
0.0
 10
1967.876285
 20
2619.108250
 30
0.0
 10
2160.000000
 20
2951.876285
 30
0.0
 10
2160.000000
 20
3312.000000
 30
0.0
  0
LWPOLYLINE
  5
11a
100
AcDbEntity
  8
0
 62
1
100
AcDbPolyline
 90
1
 70
1
 10
6596.811897
 20
1107.327461
 30
0.0
  0
SPLINE
  5
11b
100
AcDbEntity
  8
0
 62
1
100
AcDbSpline
 70
8
 71
3
 72
8
 73
4
 74
0
 40
0
 40
0
 40
0
 40
0
 40
1
 40
1
 40
1
 40
1
 10
4436.811897
 20
3312.000000
 30
0.0
 10
4436.811905
 20
3672.123720
 30
0.0
 10
4244.688192
 20
4004.891763
 30
0.0
 10
3932.811903
 20
4184.953625
 30
0.0
  0
SPLINE
  5
11c
100
AcDbEntity
  8
0
 62
1
100
AcDbSpline
 70
8
 71
3
 72
8
 73
4
 74
0
 40
0
 40
0
 40
0
 40
0
 40
1
 40
1
 40
1
 40
1
 10
3932.811903
 20
4184.953625
 30
0.0
 10
3620.935615
 20
4365.015487
 30
0.0
 10
3236.688179
 20
4365.015487
 30
0.0
 10
2924.811891
 20
4184.953625
 30
0.0
  0
SPLINE
  5
11d
100
AcDbEntity
  8
0
 62
1
100
AcDbSpline
 70
8
 71
3
 72
8
 73
4
 74
0
 40
0
 40
0
 40
0
 40
0
 40
1
 40
1
 40
1
 40
1
 10
2924.811891
 20
4184.953625
 30
0.0
 10
2612.935602
 20
4004.891763
 30
0.0
 10
2420.811889
 20
3672.123720
 30
0.0
 10
2420.811897
 20
3312.000000
 30
0.0
  0
SPLINE
  5
11e
100
AcDbEntity
  8
0
 62
1
100
AcDbSpline
 70
8
 71
3
 72
8
 73
4
 74
0
 40
0
 40
0
 40
0
 40
0
 40
1
 40
1
 40
1
 40
1
 10
2420.811897
 20
3312.000000
 30
0.0
 10
2420.811897
 20
2951.876285
 30
0.0
 10
2612.935612
 20
2619.108250
 30
0.0
 10
2924.811897
 20
2439.046393
 30
0.0
  0
SPLINE
  5
11f
100
AcDbEntity
  8
0
 62
1
100
AcDbSpline
 70
8
 71
3
 72
8
 73
4
 74
0
 40
0
 40
0
 40
0
 40
0
 40
1
 40
1
 40
1
 40
1
 10
2924.811897
 20
2439.046393
 30
0.0
 10
3236.688182
 20
2258.984536
 30
0.0
 10
3620.935612
 20
2258.984536
 30
0.0
 10
3932.811897
 20
2439.046393
 30
0.0
  0
SPLINE
  5
120
100
AcDbEntity
  8
0
 62
1
100
AcDbSpline
 70
8
 71
3
 72
8
 73
4
 74
0
 40
0
 40
0
 40
0
 40
0
 40
1
 40
1
 40
1
 40
1
 10
3932.811897
 20
2439.046393
 30
0.0
 10
4244.688182
 20
2619.108250
 30
0.0
 10
4436.811897
 20
2951.876285
 30
0.0
 10
4436.811897
 20
3312.000000
 30
0.0
  0
LWPOLYLINE
  5
121
100
AcDbEntity
  8
0
 62
1
100
AcDbPolyline
 90
1
 70
1
 10
2160.000000
 20
3312.000000
 30
0.0
  0
SPLINE
  5
122
100
AcDbEntity
  8
0
 62
1
100
AcDbSpline
 70
8
 71
3
 72
8
 73
4
 74
0
 40
0
 40
0
 40
0
 40
0
 40
1
 40
1
 40
1
 40
1
 10
6596.811897
 20
3312.000000
 30
0.0
 10
6596.811897
 20
3672.123715
 30
0.0
 10
6404.688182
 20
4004.891750
 30
0.0
 10
6092.811897
 20
4184.953607
 30
0.0
  0
SPLINE
  5
123
100
AcDbEntity
  8
0
 62
1
100
AcDbSpline
 70
8
 71
3
 72
8
 73
4
 74
0
 40
0
 40
0
 40
0
 40
0
 40
1
 40
1
 40
1
 40
1
 10
6092.811897
 20
4184.953607
 30
0.0
 10
5780.935612
 20
4365.015464
 30
0.0
 10
5396.688182
 20
4365.015464
 30
0.0
 10
5084.811897
 20
4184.953607
 30
0.0
  0
SPLINE
  5
124
100
AcDbEntity
  8
0
 62
1
100
AcDbSpline
 70
8
 71
3
 72
8
 73
4
 74
0
 40
0
 40
0
 40
0
 40
0
 40
1
 40
1
 40
1
 40
1
 10
5084.811897
 20
4184.953607
 30
0.0
 10
4772.935612
 20
4004.891750
 30
0.0
 10
4580.811897
 20
3672.123715
 30
0.0
 10
4580.811897
 20
3312.000000
 30
0.0
  0
SPLINE
  5
125
100
AcDbEntity
  8
0
 62
1
100
AcDbSpline
 70
8
 71
3
 72
8
 73
4
 74
0
 40
0
 40
0
 40
0
 40
0
 40
1
 40
1
 40
1
 40
1
 10
4580.811897
 20
3312.000000
 30
0.0
 10
4580.811897
 20
2951.876285
 30
0.0
 10
4772.935612
 20
2619.108250
 30
0.0
 10
5084.811897
 20
2439.046393
 30
0.0
  0
SPLINE
  5
126
100
AcDbEntity
  8
0
 62
1
100
AcDbSpline
 70
8
 71
3
 72
8
 73
4
 74
0
 40
0
 40
0
 40
0
 40
0
 40
1
 40
1
 40
1
 40
1
 10
5084.811897
 20
2439.046393
 30
0.0
 10
5396.688182
 20
2258.984536
 30
0.0
 10
5780.935612
 20
2258.984536
 30
0.0
 10
6092.811897
 20
2439.046393
 30
0.0
  0
SPLINE
  5
127
100
AcDbEntity
  8
0
 62
1
100
AcDbSpline
 70
8
 71
3
 72
8
 73
4
 74
0
 40
0
 40
0
 40
0
 40
0
 40
1
 40
1
 40
1
 40
1
 10
6092.811897
 20
2439.046393
 30
0.0
 10
6404.688182
 20
2619.108250
 30
0.0
 10
6596.811897
 20
2951.876285
 30
0.0
 10
6596.811897
 20
3312.000000
 30
0.0
  0
LWPOLYLINE
  5
128
100
AcDbEntity
  8
0
 62
1
100
AcDbPolyline
 90
1
 70
1
 10
4436.811897
 20
3312.000000
 30
0.0
  0
LWPOLYLINE
  5
129
100
AcDbEntity
  8
0
 62
1
100
AcDbPolyline
 90
1
 70
1
 10
6596.811897
 20
3312.000000
 30
0.0
  0
LWPOLYLINE
  5
12a
100
AcDbEntity
  8
0
 62
1
100
AcDbPolyline
 90
5
 70
1
 10
6768.000000
 20
0.000000
 30
0.0
 10
0.000000
 20
0.000000
 30
0.0
 10
0.000000
 20
4464.000000
 30
0.0
 10
6768.000000
 20
4464.000000
 30
0.0
 10
6768.000000
 20
0.000000
 30
0.0
  0
ENDSEC
  0
SECTION
  2
OBJECTS
  0
DICTIONARY
  5
C
330
0
100
AcDbDictionary
  3
ACAD_GROUP
350
D
  3
ACAD_MLINESTYLE
350
17
  0
DICTIONARY
  5
D
330
C
100
AcDbDictionary
  0
DICTIONARY
  5
1A
330
C
100
AcDbDictionary
  0
DICTIONARY
  5
17
330
C
100
AcDbDictionary
  3
STANDARD
350
18
  0
DICTIONARY
  5
19
330
C
100
AcDbDictionary
  0
ENDSEC
  0
EOF
